<svg width="226" height="111" viewBox="0 0 226 111" fill="none" xmlns="http://www.w3.org/2000/svg">
<rect x="0.5" y="1.25439" width="225" height="109" fill="white" stroke="#DFDFDF"/>
<g clip-path="url(#clip0_87_444)">
<path d="M65.0281 60.1492C33.8139 60.1492 24 54.2251 24 54.2251C24 54.2251 34.9398 64.9529 65.0281 64.9529H65.0813V60.1492H65.0281Z" fill="#9A1915"/>
<path d="M65.0811 33.0534V44.6443H70.6194V55.8452H65.0811V60.1492C96.242 60.1492 105.725 54.2251 105.725 54.2251C105.725 54.2251 95.1313 64.9302 65.0811 64.9491V78.4024H110.655V33.0534H65.0811Z" fill="#004899"/>
<path d="M59.3867 44.6443H65.0848V55.8263H59.3867V44.6443Z" fill="white"/>
<path d="M59.3867 44.6443H65.0316V55.8263H59.3867V44.6443Z" fill="#9A1915"/>
<path d="M127.285 34.5979L126.593 35.124C126.23 34.6415 125.757 34.2522 125.212 33.9884C124.661 33.73 124.057 33.6005 123.447 33.6099C122.766 33.6051 122.094 33.7774 121.5 34.1096C120.922 34.4248 120.44 34.8907 120.108 35.4572C119.778 36.0335 119.609 36.6868 119.617 37.3498C119.606 37.8435 119.699 38.3339 119.889 38.7901C120.079 39.2463 120.362 39.6581 120.72 39.9996C121.088 40.3538 121.524 40.6307 122.001 40.8141C122.479 40.9975 122.989 41.0835 123.501 41.0671C124.092 41.0748 124.677 40.9494 125.212 40.7003C125.748 40.4512 126.22 40.0849 126.593 39.6286L127.285 40.1548C126.852 40.7144 126.29 41.1622 125.646 41.4608C124.955 41.7707 124.205 41.9258 123.447 41.915C122.766 41.9491 122.086 41.8308 121.456 41.5687C120.827 41.3067 120.265 40.9076 119.811 40.4009C119.065 39.5393 118.667 38.4335 118.693 37.2969C118.68 36.6945 118.794 36.0962 119.027 35.5402C119.261 34.9842 119.608 34.4828 120.047 34.0679C120.494 33.634 121.025 33.2941 121.607 33.0685C122.189 32.8428 122.811 32.736 123.436 32.7544C124.205 32.7434 124.967 32.9092 125.661 33.2389C126.308 33.5505 126.866 34.0176 127.285 34.5979ZM129.035 32.9702H129.914V36.6382H134.391V32.9702H135.27V41.7144H134.391V37.4975H129.914V41.7144H129.035V32.9702ZM141.002 32.9702L145.103 41.7144H144.152L142.775 38.8337H138.971L137.601 41.7144H136.631L140.778 32.9702H141.002ZM140.892 34.8136L139.37 37.9896H142.383L140.892 34.8136ZM146.057 41.7144L147.297 32.9702H147.453L151.021 40.1624L154.555 32.9702H154.703L155.962 41.7144H155.107L154.236 35.4572L151.128 41.7144H150.896L147.761 35.4042L146.906 41.7068L146.057 41.7144ZM157.727 32.9702H159.458C160.006 32.9458 160.552 33.0294 161.067 33.2162C161.432 33.3744 161.741 33.6382 161.953 33.9733C162.169 34.3128 162.282 34.7072 162.277 35.1089C162.281 35.4816 162.183 35.8483 161.992 36.1688C161.791 36.5002 161.501 36.769 161.155 36.9448C161.536 37.0609 161.894 37.2456 162.208 37.4899C162.454 37.6973 162.652 37.9557 162.786 38.247C162.922 38.5429 162.992 38.8643 162.992 39.1895C162.999 39.5234 162.935 39.855 162.804 40.1623C162.673 40.4697 162.478 40.7458 162.231 40.9725C161.663 41.4769 160.918 41.7381 160.158 41.6993H157.743L157.727 32.9702ZM158.591 33.8294V36.6231H159.093C159.547 36.6458 160.001 36.5895 160.436 36.4565C160.713 36.3509 160.95 36.1632 161.117 35.919C161.283 35.6815 161.371 35.3983 161.368 35.1089C161.376 34.9298 161.341 34.7513 161.266 34.5881C161.191 34.425 161.079 34.2817 160.938 34.1701C160.543 33.91 160.071 33.79 159.599 33.8294H158.591ZM158.591 37.505V40.8589H159.679C160.157 40.8827 160.635 40.8186 161.09 40.6696C161.383 40.5515 161.634 40.3484 161.809 40.0867C161.987 39.8335 162.082 39.5324 162.083 39.2236C162.09 38.8485 161.954 38.4847 161.702 38.2053C161.422 37.9031 161.054 37.6953 160.649 37.611C160.134 37.5225 159.611 37.487 159.089 37.505H158.591ZM164.78 32.9702H166.529C167.192 32.9497 167.856 32.9889 168.511 33.0875C169.008 33.1901 169.456 33.4569 169.782 33.8446C170.115 34.2518 170.29 34.7655 170.272 35.2906C170.283 35.7319 170.165 36.1669 169.934 36.5436C169.706 36.9098 169.37 37.1968 168.972 37.365C168.418 37.5742 167.828 37.6708 167.237 37.6489L170.398 41.703H169.306L166.149 37.6754H165.655V41.7144H164.78V32.9702ZM165.655 33.8294V36.801H167.176C167.616 36.823 168.057 36.7666 168.477 36.6344C168.748 36.533 168.979 36.3471 169.135 36.1045C169.293 35.8609 169.375 35.5765 169.371 35.2868C169.373 35.0015 169.29 34.722 169.131 34.4843C168.982 34.2514 168.762 34.0713 168.504 33.9695C168.086 33.8466 167.65 33.7954 167.214 33.8181L165.655 33.8294ZM172.167 32.9702H177.203V33.8294H173.042V36.5701H177.165V37.4293H173.042V40.8589H177.165V41.7144H172.167V32.9702ZM182.106 41.7144V32.9702H183.924C184.895 32.9254 185.866 33.0314 186.804 33.2843C187.627 33.56 188.331 34.106 188.801 34.8326C189.295 35.616 189.545 36.5274 189.52 37.4521C189.536 38.2589 189.341 39.0561 188.953 39.7649C188.615 40.3902 188.099 40.9024 187.47 41.2374C186.664 41.5974 185.784 41.761 184.902 41.7144H182.106ZM182.951 40.8892H183.966C184.813 40.927 185.662 40.8506 186.488 40.6621C187.125 40.4665 187.674 40.0588 188.044 39.5075C188.436 38.9 188.633 38.1887 188.611 37.4672C188.633 36.7009 188.418 35.9462 187.994 35.3057C187.587 34.7081 186.981 34.2724 186.283 34.0755C185.393 33.8766 184.482 33.7939 183.571 33.8294H182.951V40.8892ZM191.22 32.9702H196.256V33.8294H192.095V36.5701H196.218V37.4293H192.095V40.8589H196.218V41.7144H191.22V32.9702ZM196.861 40.0829L197.622 39.6362C198.147 40.5977 198.763 41.0822 199.44 41.0822C199.731 41.0833 200.017 41.0131 200.273 40.8778C200.512 40.7484 200.712 40.5575 200.851 40.3252C200.983 40.1038 201.052 39.8516 201.053 39.5946C201.047 39.2843 200.943 38.9838 200.756 38.7353C200.327 38.1967 199.821 37.7235 199.254 37.3309C198.752 36.9878 198.294 36.5862 197.888 36.1347C197.586 35.754 197.422 35.2835 197.42 34.7985C197.416 34.4345 197.511 34.0762 197.694 33.7613C197.872 33.4431 198.135 33.1808 198.455 33.0042C198.793 32.8297 199.17 32.7437 199.55 32.7544C199.958 32.7517 200.358 32.8576 200.711 33.061C201.165 33.3578 201.554 33.7443 201.852 34.1966L201.137 34.7379C200.909 34.4026 200.623 34.1104 200.292 33.8749C200.063 33.7362 199.8 33.6641 199.531 33.6667C199.372 33.66 199.214 33.6847 199.064 33.7392C198.915 33.7938 198.777 33.8772 198.66 33.9846C198.553 34.0863 198.467 34.2091 198.41 34.3453C198.352 34.4814 198.323 34.628 198.326 34.7758C198.327 34.966 198.367 35.154 198.444 35.3285C198.553 35.5472 198.701 35.7446 198.881 35.9114C198.995 36.0212 199.372 36.3127 200.022 36.782C200.625 37.187 201.154 37.6914 201.586 38.2735C201.852 38.6545 202.003 39.104 202.019 39.5681C202.021 39.8781 201.957 40.1851 201.833 40.4693C201.709 40.7535 201.526 41.0087 201.296 41.2185C201.064 41.4462 200.788 41.6253 200.485 41.7456C200.182 41.8658 199.858 41.9247 199.531 41.9188C199.017 41.9246 198.512 41.7769 198.082 41.4948C197.567 41.1287 197.148 40.6444 196.861 40.0829ZM119.096 78.3834V63.5712H122.181C124.406 63.5712 126.019 63.7453 127.023 64.1049C128.416 64.5693 129.609 65.4918 130.405 66.7207C131.251 68.0471 131.684 69.5936 131.648 71.1647C131.677 72.5323 131.344 73.8834 130.682 75.0826C130.109 76.1397 129.238 77.0068 128.175 77.5771C127.145 78.1147 125.707 78.3834 123.851 78.3834H119.096ZM120.526 76.979H122.242C124.299 76.979 125.722 76.8503 126.521 76.6005C127.598 76.2666 128.528 75.576 129.157 74.6435C129.823 73.617 130.159 72.4126 130.119 71.1912C130.158 69.8934 129.794 68.6152 129.077 67.5307C128.385 66.5192 127.358 65.7822 126.175 65.4488C125.247 65.1661 123.714 65.0248 121.576 65.0248H120.526V76.979ZM134.52 63.5712H143.06V65.021H136.011V69.6543H142.995V71.1079H136.011V76.9336H142.995V78.3834H134.52V63.5712ZM151.352 63.5712H154.315C155.461 63.5301 156.608 63.6037 157.739 63.7908C158.557 63.9779 159.29 64.4291 159.823 65.074C160.378 65.7651 160.666 66.6314 160.634 67.5156C160.669 68.3964 160.39 69.2612 159.846 69.9572C159.288 70.6196 158.521 71.0757 157.67 71.2518C156.421 71.4573 155.155 71.5385 153.889 71.494H152.824V78.3834H151.352V63.5712ZM152.839 65.021V70.0404L155.361 70.0707C156.116 70.1075 156.872 70.014 157.594 69.7944C158.052 69.6242 158.443 69.3124 158.709 68.9048C158.977 68.494 159.118 68.0132 159.112 67.5232C159.116 67.0392 158.976 66.5649 158.709 66.1604C158.456 65.7615 158.081 65.4538 157.64 65.2822C156.938 65.0723 156.204 64.984 155.472 65.021H152.839ZM168.165 63.5712L175.103 78.3834H173.49L171.182 73.5343H164.742L162.437 78.3834H160.778L167.811 63.5712H168.165ZM167.975 66.7131L165.426 72.0808H170.516L167.975 66.7131ZM177.496 63.5712H180.459C181.581 63.5325 182.705 63.5997 183.814 63.7718C184.658 63.9479 185.418 64.4044 185.967 65.0664C186.532 65.7566 186.829 66.6258 186.804 67.5156C186.819 68.2641 186.622 69.0017 186.233 69.643C185.846 70.2618 185.276 70.7469 184.601 71.0322C183.667 71.3827 182.671 71.5449 181.673 71.5092L187.021 78.3834H185.18L179.831 71.5092H178.995V78.3834H177.504L177.496 63.5712ZM178.987 65.021V70.0594H181.547C182.291 70.0946 183.035 69.9985 183.746 69.7755C184.205 69.6023 184.596 69.2863 184.86 68.8745C185.127 68.4615 185.265 67.9798 185.26 67.4891C185.263 67.0082 185.122 66.5372 184.852 66.1377C184.601 65.7413 184.229 65.435 183.791 65.2633C183.084 65.0523 182.345 64.9639 181.608 65.0021L178.987 65.021ZM189.778 63.5712H191.27V78.3834H189.778V63.5712ZM193.145 75.6314L194.408 74.8744C195.298 76.5021 196.325 77.3159 197.489 77.3159C197.98 77.3175 198.463 77.1978 198.896 76.9677C199.31 76.7557 199.657 76.4333 199.897 76.0365C200.121 75.6608 200.239 75.2319 200.239 74.7949C200.227 74.2685 200.05 73.7589 199.733 73.3375C199.006 72.4258 198.148 71.625 197.188 70.9603C195.952 70.0253 195.18 69.3515 194.879 68.9351C194.371 68.286 194.094 67.487 194.092 66.6639C194.088 66.0551 194.248 65.4564 194.556 64.9302C194.866 64.3993 195.32 63.9653 195.865 63.6772C196.427 63.3716 197.058 63.2139 197.698 63.2192C198.389 63.2151 199.069 63.3926 199.668 63.734C200.436 64.2282 201.094 64.8721 201.605 65.6267L200.391 66.5427C200.01 65.9755 199.531 65.4796 198.976 65.0778C198.587 64.846 198.14 64.7255 197.687 64.7295C197.418 64.7191 197.149 64.7616 196.896 64.8545C196.644 64.9474 196.412 65.0888 196.215 65.2708C196.03 65.4419 195.884 65.6496 195.786 65.8804C195.688 66.1113 195.639 66.3602 195.644 66.6109C195.643 66.9345 195.712 67.2546 195.846 67.5496C196.03 67.919 196.28 68.2523 196.583 68.5338C196.777 68.7231 197.417 69.2152 198.504 70.0177C199.53 70.7024 200.43 71.5563 201.167 72.5426C201.618 73.1997 201.866 73.9731 201.882 74.7684C201.885 75.2942 201.777 75.8148 201.566 76.2967C201.354 76.7785 201.043 77.2108 200.654 77.5658C200.261 77.9537 199.794 78.2589 199.28 78.4631C198.767 78.6673 198.217 78.7664 197.664 78.7544C196.792 78.7633 195.936 78.5143 195.207 78.039C194.333 77.4154 193.625 76.5889 193.145 75.6314ZM119.275 59.5171V46.1054H119.567L128.529 56.3449V46.1244H129.88V59.5171H129.568L120.674 49.3684V59.5171H119.275ZM139.579 45.7685C140.528 45.7438 141.472 45.9112 142.353 46.2607C143.234 46.6101 144.035 47.1343 144.707 47.8013C145.379 48.4512 145.909 49.232 146.264 50.0951C146.618 50.9581 146.79 51.8847 146.769 52.8169C146.757 54.2112 146.333 55.5712 145.549 56.7272C144.766 57.8831 143.658 58.7838 142.363 59.3168C141.068 59.8498 139.644 59.9915 138.269 59.7241C136.894 59.4568 135.629 58.7923 134.631 57.8136C133.964 57.1746 133.437 56.406 133.081 55.5555C132.726 54.705 132.55 53.7909 132.565 52.8699C132.556 51.6147 132.88 50.3794 133.505 49.289C134.11 48.2144 134.994 47.3211 136.065 46.702C137.135 46.0829 138.353 45.7605 139.591 45.7685H139.579ZM139.636 47.0631C138.636 47.0753 137.656 47.3462 136.792 47.8493C135.928 48.3523 135.211 49.0702 134.71 49.9325C134.201 50.8264 133.939 51.8386 133.95 52.8661C133.946 53.6107 134.09 54.3487 134.373 55.0376C134.657 55.7266 135.075 56.353 135.603 56.8807C136.13 57.4084 136.758 57.827 137.449 58.1125C138.14 58.398 138.881 58.5447 139.629 58.5442C140.647 58.5526 141.648 58.2913 142.531 57.7871C143.403 57.3003 144.123 56.5839 144.612 55.7165C145.118 54.8243 145.381 53.8153 145.373 52.7904C145.382 51.7763 145.119 50.778 144.612 49.8984C144.111 49.0328 143.384 48.3184 142.508 47.8316C141.637 47.3263 140.645 47.0611 139.636 47.0631ZM148.111 47.419V46.1054H155.517V47.419H152.505V59.5322H151.124V47.419H148.111ZM161.425 46.1054L167.712 59.5171H166.263L164.171 55.1298H158.321L156.236 59.5171H154.734L161.101 46.1054H161.425ZM161.261 48.9331L158.945 53.8163H163.566L161.261 48.9331ZM169.607 46.1054H170.961V59.5171H169.607V46.1054ZM174.114 46.1054H176.804C177.822 46.0706 178.841 46.1327 179.847 46.2909C180.612 46.4506 181.301 46.8628 181.802 47.4606C182.315 48.0837 182.585 48.8699 182.563 49.6751C182.576 50.353 182.396 51.0208 182.045 51.6018C181.691 52.1618 181.174 52.6004 180.562 52.8586C179.712 53.1767 178.807 53.3234 177.899 53.2901L182.745 59.5171H181.098L176.229 53.2901H175.468V59.5171H174.118L174.114 46.1054ZM175.465 47.419V51.9614H177.789C178.465 51.9937 179.143 51.9078 179.79 51.7078C180.2 51.5591 180.553 51.2848 180.798 50.9242C181.045 50.5528 181.178 50.117 181.178 49.6713C181.179 49.2335 181.047 48.8057 180.798 48.4448C180.567 48.0894 180.23 47.8142 179.835 47.6575C179.192 47.4651 178.52 47.3845 177.85 47.419H175.465ZM185.438 46.1054H193.171V47.419H186.804V51.6208H193.126V52.9343H186.804V58.2035H193.126V59.5171H185.438V46.1054ZM194.103 57.0338L195.245 56.3487C196.048 57.82 196.979 58.5568 198.037 58.5594C198.48 58.5615 198.916 58.4535 199.307 58.2452C199.684 58.0541 199.999 57.7616 200.216 57.401C200.42 57.0573 200.527 56.6648 200.524 56.2654C200.515 55.7883 200.356 55.326 200.068 54.9443C199.407 54.1296 198.632 53.4132 197.766 52.8169C196.996 52.2927 196.292 51.6776 195.671 50.9848C195.21 50.3975 194.958 49.6744 194.955 48.9293C194.95 48.3688 195.096 47.8171 195.378 47.3319C195.658 46.85 196.07 46.4565 196.564 46.1963C197.069 45.9163 197.637 45.7691 198.215 45.7685C198.84 45.7651 199.454 45.9271 199.996 46.2379C200.692 46.6882 201.289 47.2756 201.749 47.9641L200.646 48.7931C200.298 48.2814 199.861 47.8354 199.356 47.4758C199.005 47.2654 198.602 47.1554 198.193 47.1578C197.949 47.1478 197.706 47.1862 197.477 47.2706C197.249 47.3551 197.039 47.484 196.861 47.6499C196.694 47.8053 196.562 47.9936 196.473 48.2029C196.384 48.4122 196.34 48.6377 196.344 48.865C196.344 49.1561 196.406 49.4438 196.526 49.7091C196.695 50.0447 196.922 50.3483 197.196 50.6063C197.376 50.7779 197.955 51.2245 198.934 51.9463C199.857 52.5621 200.668 53.3302 201.331 54.2175C201.74 54.8113 201.966 55.5113 201.981 56.2313C201.987 56.7092 201.892 57.183 201.702 57.6219C201.512 58.0608 201.231 58.455 200.878 58.7789C200.522 59.1298 200.099 59.4061 199.634 59.5914C199.168 59.7767 198.671 59.8673 198.17 59.8577C197.376 59.8668 196.597 59.6401 195.933 59.2067C195.155 58.6404 194.528 57.8948 194.103 57.0338Z" fill="#878787"/>
</g>
<defs>
<clipPath id="clip0_87_444">
<rect width="178" height="46" fill="white" transform="translate(24 32.7544)"/>
</clipPath>
</defs>
</svg>
