<svg width="226" height="111" viewBox="0 0 226 111" fill="none" xmlns="http://www.w3.org/2000/svg">
<rect x="0.5" y="1.25439" width="225" height="109" fill="white" stroke="#DFDFDF"/>
<g clip-path="url(#clip0_87_436)">
<mask id="mask0_87_436" style="mask-type:luminance" maskUnits="userSpaceOnUse" x="-565" y="-982" width="1617" height="1124">
<path d="M-564.479 141.345H1051.27V-981.175H-564.479V141.345Z" fill="white"/>
</mask>
<g mask="url(#mask0_87_436)">
<path d="M120.481 21.1312C120.714 21.1219 120.946 21.1125 121.213 21.1125C121.604 21.1125 122.189 21.1312 122.726 21.2152C122.708 21.1219 122.688 21.0485 122.688 20.9165C122.688 20.7765 122.708 20.6925 122.726 20.5899C122.132 20.6645 121.242 20.6752 120.481 20.6645C120.473 20.1699 120.473 20.0592 120.473 19.4525C120.473 18.9019 120.473 18.7432 120.49 18.3699C120.705 18.3619 120.9 18.3619 121.085 18.3619C121.845 18.3619 122.522 18.4365 122.921 18.4925C122.902 18.3992 122.884 18.3139 122.884 18.1752C122.884 18.0339 122.902 17.9512 122.921 17.8485C122.577 17.8859 122.252 17.9059 121.01 17.9059C120.314 17.9059 120.038 17.9059 119.517 17.8485C119.564 18.7432 119.592 20.2259 119.592 21.1312C119.592 22.3432 119.556 23.3405 119.49 24.2925C119.638 24.2645 119.749 24.2365 120 24.2365C120.26 24.2365 120.4 24.2645 120.546 24.2925C120.501 23.7325 120.464 23.3405 120.473 22.4179L120.481 21.1312Z" fill="#214395"/>
<path d="M114.98 24.0317C113.553 24.0317 112.533 22.9211 112.533 21.1037C112.533 18.9957 113.777 18.1557 115.009 18.1557C115.64 18.1557 116.574 18.4077 117.076 19.2571C117.401 19.8077 117.485 20.5624 117.485 21.0477C117.485 22.9584 116.445 24.0317 114.98 24.0317ZM115.054 17.7544C112.784 17.7544 111.476 19.1264 111.476 21.1117C111.476 23.1824 112.941 24.4331 114.962 24.4331C117.17 24.4331 118.541 22.9504 118.541 21.0011C118.541 18.9024 116.993 17.7544 115.054 17.7544Z" fill="#214395"/>
<path d="M105.475 23.7611C105.475 20.8611 105.475 20.2264 105.558 17.8397C105.391 17.8677 105.215 17.8944 104.974 17.8944C104.743 17.8944 104.622 17.8677 104.474 17.8397C104.492 18.2397 104.547 19.6197 104.547 20.8891C104.547 22.1104 104.538 23.0984 104.463 24.2917C104.964 24.2637 105.195 24.2371 106.012 24.2371C107.023 24.2371 107.412 24.2744 108.015 24.2917C107.996 24.2184 107.979 24.1237 107.979 23.9757C107.979 23.8451 107.996 23.7517 108.015 23.6691C107.588 23.7424 106.81 23.7797 106.338 23.7797C106.104 23.7797 105.919 23.7797 105.475 23.7611Z" fill="#214395"/>
<path d="M101.771 20.9727C101.771 22.8007 101.742 23.2753 101.678 24.2927C101.827 24.2647 101.966 24.2367 102.17 24.2367C102.374 24.2367 102.568 24.2647 102.744 24.2927C102.716 23.5927 102.679 22.8473 102.679 21.1687C102.679 20.0593 102.698 18.95 102.754 17.8393C102.596 17.8767 102.476 17.8953 102.216 17.8953C101.966 17.8953 101.855 17.8767 101.706 17.8393C101.771 19.546 101.771 19.63 101.771 20.9727Z" fill="#214395"/>
<path d="M99.958 22.9956C99.234 23.8636 98.2686 23.9569 97.8526 23.9569C96.5366 23.9569 95.3393 22.9956 95.3393 21.0569C95.3393 19.2569 96.3126 18.1756 97.778 18.1756C98.7246 18.1756 99.542 18.6689 99.7913 19.2009H99.8846C99.93 18.7716 99.9673 18.6502 100.105 18.2689C99.6886 18.0822 98.938 17.7742 97.8153 17.7742C95.3766 17.7742 94.2646 19.2662 94.2646 21.0649C94.2646 22.9876 95.5166 24.4036 97.6673 24.4036C98.4833 24.4036 99.2806 24.2089 99.9673 23.7982C99.9846 23.4529 100.023 23.2569 100.069 23.0436L99.958 22.9956Z" fill="#214395"/>
<path d="M87.9874 19.4717L89.7954 21.3637C89.9541 21.5224 90.1114 21.6811 90.2688 21.8304C90.9181 22.4357 92.3088 23.9944 92.5954 24.3477C92.6608 24.3397 92.6981 24.3291 92.7434 24.3291C92.8008 24.3291 92.8461 24.3397 92.9208 24.3477C92.8834 23.6864 92.8834 22.5664 92.8834 21.8397C92.8834 20.4971 92.8834 19.1451 93.0421 17.8024C92.9208 17.8304 92.7901 17.8584 92.6434 17.8584C92.4941 17.8584 92.3821 17.8304 92.2808 17.8024C92.4008 19.1544 92.4008 19.9744 92.4008 22.3531V22.6984C91.2234 21.4944 91.0194 21.2704 89.1648 19.3037C88.5994 18.7064 88.3768 18.4557 88.1261 18.1664L87.8208 17.8024C87.7368 17.8117 87.6821 17.8197 87.6261 17.8197C87.5794 17.8197 87.5341 17.8117 87.4781 17.8024V18.9197C87.4781 19.2571 87.5061 20.8797 87.5061 21.2531C87.5061 22.2224 87.4314 23.8264 87.3848 24.2917C87.4954 24.2637 87.5794 24.2371 87.7461 24.2371C87.9128 24.2371 88.0248 24.2637 88.1354 24.2917C88.0528 22.8464 88.0154 22.3157 87.9874 20.0597V19.4717Z" fill="#214395"/>
<path d="M80.6694 21.7C80.6694 22.5013 80.7161 23.0147 81.0601 23.4813C81.6347 24.2547 82.6081 24.4227 83.3214 24.4227C84.3787 24.4227 84.9721 24.096 85.3627 23.6867C85.9827 23.0427 86.0294 22.036 86.0294 21.1307C86.0294 19.752 86.0667 18.688 86.1867 17.8387C86.0761 17.8667 85.9827 17.8947 85.7787 17.8947C85.5654 17.8947 85.4641 17.8667 85.3427 17.8387C85.4361 18.4453 85.4734 20.2813 85.4734 20.6373C85.4734 20.8693 85.4641 21.924 85.3147 22.5573C85.0094 23.8627 83.7481 23.9187 83.4881 23.9187C82.9041 23.9187 82.3027 23.6867 82.0054 23.3133C81.6347 22.856 81.5974 22.204 81.5974 21.028C81.5974 20.832 81.5974 19.0613 81.6801 17.8387C81.5227 17.8667 81.3467 17.8947 81.1427 17.8947C80.9761 17.8947 80.7894 17.8667 80.5947 17.8387C80.6694 19.0053 80.6694 19.192 80.6694 21.7Z" fill="#214395"/>
<path d="M158.041 20.6553C158.032 20.162 158.032 20.05 158.032 19.4433C158.032 18.8926 158.032 18.7353 158.051 18.37C158.448 18.3526 158.616 18.3526 158.949 18.3526C159.757 18.3526 160.08 18.4073 160.424 18.4726C160.404 18.3793 160.387 18.3046 160.387 18.1753C160.387 18.054 160.404 17.9513 160.424 17.8486C159.952 17.8953 159.487 17.9046 159.015 17.9046C158.367 17.9046 157.725 17.9046 157.077 17.8486C157.132 18.762 157.151 20.022 157.151 20.954C157.151 22.9873 157.104 23.5926 157.048 24.2926C157.763 24.2646 158.485 24.2366 159.2 24.2366C159.627 24.2366 160.063 24.2366 160.489 24.2926C160.469 24.1993 160.452 24.1246 160.452 23.994C160.452 23.8633 160.469 23.7793 160.489 23.6766C159.395 23.7886 158.644 23.7886 158.051 23.7886C158.041 23.538 158.021 22.8286 158.021 22.3433C158.021 21.9433 158.032 21.5233 158.041 21.122C158.272 21.1126 158.543 21.1033 158.793 21.1033C159.191 21.1033 159.748 21.1313 160.229 21.1966C160.22 21.094 160.192 21.01 160.192 20.9073C160.192 20.7766 160.211 20.6926 160.229 20.59C159.505 20.6753 158.773 20.6646 158.041 20.6553Z" fill="#214395"/>
<path d="M152.995 21.0283C152.987 20.0496 152.987 19.0976 152.995 18.2963C153.171 18.2683 153.385 18.2589 153.534 18.2589C154.006 18.2589 154.535 18.3709 154.85 18.6696C155.082 18.8923 155.165 19.2189 155.165 19.5829C155.165 21.0096 153.923 21.0563 152.995 21.0283ZM155.314 18.0816C154.869 17.8669 154.274 17.8669 153.57 17.8669C152.847 17.8669 152.394 17.8669 152.031 17.8389C152.078 18.5109 152.105 18.9576 152.105 20.3576C152.105 21.6709 152.097 22.9869 152.031 24.2923C152.162 24.2643 152.273 24.2363 152.523 24.2363C152.791 24.2363 152.903 24.2643 153.061 24.2923C153.014 23.3883 152.987 22.7069 152.995 21.4203C153.145 21.4296 153.293 21.4389 153.442 21.4389C154.006 21.4389 154.794 21.3643 155.286 21.0483C155.666 20.8043 156.175 20.3376 156.175 19.4896C156.175 18.8643 155.879 18.3523 155.314 18.0816Z" fill="#214395"/>
<path d="M147.422 24.0317C145.996 24.0317 144.974 22.9211 144.974 21.1037C144.974 18.9957 146.218 18.1557 147.45 18.1557C148.082 18.1557 149.017 18.4077 149.52 19.2571C149.844 19.8077 149.926 20.5624 149.926 21.0477C149.926 22.9584 148.888 24.0317 147.422 24.0317ZM147.498 17.7544C145.226 17.7544 143.917 19.1264 143.917 21.1117C143.917 23.1824 145.382 24.4331 147.405 24.4331C149.61 24.4331 150.984 22.9504 150.984 21.0011C150.984 18.9024 149.434 17.7544 147.498 17.7544Z" fill="#214395"/>
<path d="M139.931 20.8417C139.931 20.6457 139.921 19.9937 139.921 19.5644C139.921 19.1444 139.921 18.715 139.937 18.2964C140.059 18.2764 140.253 18.2497 140.524 18.2497C141.201 18.2497 142.119 18.3897 142.119 19.4804C142.119 20.7764 140.84 20.8324 140.42 20.851C140.197 20.8617 140.107 20.8617 139.931 20.8417ZM141.265 21.0484C141.832 20.9444 143.083 20.711 143.083 19.3777C143.083 18.9297 142.963 18.5484 142.611 18.259C142.304 18.007 141.959 17.867 140.856 17.867C140.709 17.867 139.948 17.8764 139.781 17.8764C139.587 17.8764 139.325 17.8764 138.973 17.839C139.004 18.8844 139.029 19.8537 139.029 20.7204C139.029 22.083 139.013 23.1924 138.964 24.2924C139.104 24.2644 139.205 24.2364 139.456 24.2364C139.625 24.2364 139.837 24.255 139.996 24.2924C139.921 22.8004 139.931 21.831 139.931 21.1684H140.172C140.885 22.0164 141.563 22.8937 142.443 24.2924C142.701 24.2644 142.917 24.2364 143.111 24.2364C143.315 24.2364 143.463 24.2644 143.659 24.2924V24.1804C143.547 24.0217 141.608 21.579 141.265 21.0484Z" fill="#214395"/>
<path d="M132.265 21.7C132.265 22.5013 132.31 23.0147 132.656 23.4813C133.229 24.2547 134.204 24.4227 134.918 24.4227C135.976 24.4227 136.569 24.096 136.958 23.6867C137.578 23.0427 137.626 22.036 137.626 21.1307C137.626 19.752 137.662 18.688 137.782 17.8387C137.672 17.8667 137.578 17.8947 137.376 17.8947C137.161 17.8947 137.061 17.8667 136.94 17.8387C137.03 18.4453 137.069 20.2813 137.069 20.6373C137.069 20.8693 137.061 21.924 136.91 22.5573C136.604 23.8627 135.345 23.9187 135.084 23.9187C134.501 23.9187 133.898 23.6867 133.6 23.3133C133.229 22.856 133.193 22.204 133.193 21.028C133.193 20.832 133.193 19.0613 133.277 17.8387C133.118 17.8667 132.942 17.8947 132.737 17.8947C132.57 17.8947 132.385 17.8667 132.19 17.8387C132.265 19.0053 132.265 19.192 132.265 21.7Z" fill="#214395"/>
<path d="M128.583 20.6553C128.574 20.162 128.574 20.05 128.574 19.4433C128.574 18.8926 128.574 18.7353 128.593 18.37C128.99 18.3526 129.158 18.3526 129.491 18.3526C130.299 18.3526 130.623 18.4073 130.966 18.4726C130.946 18.3793 130.93 18.3046 130.93 18.1753C130.93 18.054 130.946 17.9513 130.966 17.8486C130.494 17.8953 130.029 17.9046 129.557 17.9046C128.909 17.9046 128.267 17.9046 127.619 17.8486C127.675 18.762 127.691 20.022 127.691 20.954C127.691 22.9873 127.646 23.5926 127.59 24.2926C128.303 24.2646 129.029 24.2366 129.742 24.2366C130.169 24.2366 130.605 24.2366 131.031 24.2926C131.011 24.1993 130.993 24.1246 130.993 23.994C130.993 23.8633 131.011 23.7793 131.031 23.6766C129.937 23.7886 129.186 23.7886 128.593 23.7886C128.583 23.538 128.563 22.8286 128.563 22.3433C128.563 21.9433 128.574 21.5233 128.583 21.122C128.814 21.1126 129.083 21.1033 129.334 21.1033C129.733 21.1033 130.289 21.1313 130.771 21.1966C130.761 21.094 130.735 21.01 130.735 20.9073C130.735 20.7766 130.754 20.6926 130.771 20.59C130.049 20.6753 129.315 20.6646 128.583 20.6553Z" fill="#214395"/>
<path d="M71.6947 22.9956C70.9707 23.8636 70.0067 23.9569 69.5893 23.9569C68.272 23.9569 67.076 22.9956 67.076 21.0569C67.076 19.2569 68.0507 18.1756 69.516 18.1756C70.4613 18.1756 71.2773 18.6689 71.528 19.2009H71.62C71.6667 18.7716 71.704 18.6502 71.8427 18.2689C71.4253 18.0822 70.6747 17.7742 69.552 17.7742C67.1133 17.7742 66 19.2662 66 21.0649C66 22.9876 67.252 24.4036 69.404 24.4036C70.22 24.4036 71.0173 24.2089 71.704 23.7982C71.7227 23.4529 71.7587 23.2569 71.8053 23.0436L71.6947 22.9956Z" fill="#214395"/>
<path d="M75.9604 24.0317C74.5324 24.0317 73.5124 22.9211 73.5124 21.1037C73.5124 18.9957 74.7551 18.1557 75.9884 18.1557C76.6177 18.1557 77.5551 18.4077 78.0564 19.2571C78.3804 19.8077 78.4644 20.5624 78.4644 21.0477C78.4644 22.9584 77.4257 24.0317 75.9604 24.0317ZM76.0337 17.7544C73.7631 17.7544 72.4551 19.1264 72.4551 21.1117C72.4551 23.1824 73.9204 24.4331 75.9417 24.4331C78.1484 24.4331 79.5217 22.9504 79.5217 21.0011C79.5217 18.9024 77.9724 17.7544 76.0337 17.7544Z" fill="#214395"/>
<path d="M124.826 88.5532C124.876 88.5612 124.921 88.5679 124.986 88.6119L125.865 87.1332C125.93 87.0239 125.976 86.9292 125.976 86.8279C125.976 86.6959 125.881 86.5199 125.664 86.5199C125.4 86.5199 125.334 86.7625 125.298 86.8865L124.826 88.5532Z" fill="#214395"/>
<path d="M158.041 89.5708C158.033 89.0761 158.033 88.9628 158.033 88.3588C158.033 87.8081 158.033 87.6508 158.05 87.2881C158.449 87.2668 158.617 87.2668 158.949 87.2668C159.757 87.2668 160.081 87.3241 160.423 87.3908C160.403 87.2961 160.387 87.2228 160.387 87.0908C160.387 86.9695 160.403 86.8668 160.423 86.7655C159.95 86.8121 159.487 86.8215 159.014 86.8215C158.366 86.8215 157.726 86.8215 157.077 86.7655C157.133 87.6788 157.151 88.9375 157.151 89.8695C157.151 91.9015 157.105 92.5068 157.049 93.2055C157.763 93.1775 158.486 93.1495 159.199 93.1495C159.625 93.1495 160.062 93.1495 160.487 93.2055C160.469 93.1121 160.45 93.0375 160.45 92.9068C160.45 92.7761 160.469 92.6921 160.487 92.5908C159.394 92.7028 158.642 92.7028 158.05 92.7028C158.041 92.4508 158.023 91.7415 158.023 91.2575C158.023 90.8575 158.033 90.4361 158.041 90.0361C158.273 90.0281 158.542 90.0175 158.791 90.0175C159.19 90.0175 159.747 90.0455 160.229 90.1108C160.218 90.0081 160.191 89.9255 160.191 89.8215C160.191 89.6921 160.21 89.6068 160.229 89.5055C159.505 89.5895 158.773 89.5788 158.041 89.5708Z" fill="#214395"/>
<path d="M153 89.9438C152.992 88.9652 152.992 88.0145 153 87.2118C153.177 87.1852 153.39 87.1745 153.538 87.1745C154.01 87.1745 154.54 87.2878 154.853 87.5852C155.085 87.8092 155.169 88.1358 155.169 88.4985C155.169 89.9252 153.926 89.9705 153 89.9438ZM155.317 86.9985C154.872 86.7825 154.28 86.7825 153.574 86.7825C152.852 86.7825 152.398 86.7825 152.037 86.7558C152.082 87.4265 152.11 87.8732 152.11 89.2732C152.11 90.5852 152.101 91.9012 152.037 93.2052C152.166 93.1772 152.277 93.1492 152.528 93.1492C152.797 93.1492 152.909 93.1772 153.065 93.2052C153.02 92.3012 152.992 91.6198 153 90.3345C153.149 90.3438 153.297 90.3532 153.445 90.3532C154.01 90.3532 154.798 90.2785 155.29 89.9625C155.669 89.7198 156.178 89.2532 156.178 88.4052C156.178 87.7812 155.881 87.2678 155.317 86.9985Z" fill="#214395"/>
<path d="M147.431 92.9444C146.004 92.9444 144.985 91.8351 144.985 90.0177C144.985 87.9111 146.225 87.0737 147.459 87.0737C148.088 87.0737 149.024 87.3231 149.525 88.1724C149.849 88.7231 149.932 89.4777 149.932 89.9617C149.932 91.8724 148.893 92.9444 147.431 92.9444ZM147.505 86.6711C145.233 86.6711 143.927 88.0417 143.927 90.0271C143.927 92.0964 145.391 93.3457 147.413 93.3457C149.616 93.3457 150.989 91.8631 150.989 89.9164C150.989 87.8191 149.441 86.6711 147.505 86.6711Z" fill="#214395"/>
<path d="M139.94 89.7576C139.94 89.5616 139.931 88.9096 139.931 88.4803C139.931 88.0603 139.931 87.6309 139.95 87.2123C140.071 87.1936 140.266 87.1669 140.532 87.1669C141.21 87.1669 142.128 87.3056 142.128 88.3963C142.128 89.6923 140.848 89.7483 140.431 89.7669C140.21 89.7749 140.116 89.7749 139.94 89.7576ZM141.275 89.9616C141.842 89.8589 143.091 89.6269 143.091 88.2936C143.091 87.8456 142.971 87.4643 142.62 87.1749C142.314 86.9229 141.971 86.7829 140.868 86.7829C140.718 86.7829 139.96 86.7923 139.792 86.7923C139.599 86.7923 139.338 86.7923 138.987 86.7563C139.015 87.8003 139.042 88.7683 139.042 89.6363C139.042 90.9963 139.023 92.1043 138.978 93.2043C139.116 93.1763 139.218 93.1496 139.468 93.1496C139.635 93.1496 139.848 93.1669 140.006 93.2043C139.931 91.7149 139.94 90.7443 139.94 90.0829H140.182C140.894 90.9309 141.571 91.8069 142.454 93.2043C142.711 93.1763 142.926 93.1496 143.12 93.1496C143.324 93.1496 143.472 93.1763 143.667 93.2043V93.0936C143.555 92.9349 141.619 90.4936 141.275 89.9616Z" fill="#214395"/>
<path d="M132.281 90.6151C132.281 91.4164 132.326 91.9297 132.671 92.3937C133.245 93.1671 134.218 93.3364 134.93 93.3364C135.989 93.3364 136.581 93.0084 136.971 92.5991C137.59 91.9551 137.638 90.9484 137.638 90.0457C137.638 88.6657 137.674 87.6031 137.794 86.7551C137.683 86.7831 137.59 86.8111 137.387 86.8111C137.174 86.8111 137.073 86.7831 136.951 86.7551C137.043 87.3617 137.082 89.1977 137.082 89.5511C137.082 89.7857 137.073 90.8377 136.922 91.4711C136.619 92.7764 135.357 92.8324 135.097 92.8324C134.514 92.8324 133.911 92.5991 133.615 92.2257C133.245 91.7711 133.207 91.1177 133.207 89.9444C133.207 89.7484 133.207 87.9764 133.29 86.7551C133.134 86.7831 132.958 86.8111 132.753 86.8111C132.587 86.8111 132.402 86.7831 132.206 86.7551C132.281 87.9204 132.281 88.1084 132.281 90.6151Z" fill="#214395"/>
<path d="M128.6 89.5708C128.593 89.0761 128.593 88.9628 128.593 88.3588C128.593 87.8081 128.593 87.6508 128.609 87.2881C129.009 87.2668 129.176 87.2668 129.51 87.2668C130.316 87.2668 130.641 87.3241 130.982 87.3908C130.962 87.2961 130.946 87.2228 130.946 87.0908C130.946 86.9695 130.962 86.8668 130.982 86.7655C130.51 86.8121 130.048 86.8215 129.573 86.8215C128.925 86.8215 128.286 86.8215 127.636 86.7655C127.692 87.6788 127.71 88.9375 127.71 89.8695C127.71 91.9015 127.665 92.5068 127.61 93.2055C128.322 93.1775 129.045 93.1495 129.758 93.1495C130.185 93.1495 130.621 93.1495 131.048 93.2055C131.028 93.1121 131.012 93.0375 131.012 92.9068C131.012 92.7761 131.028 92.6921 131.048 92.5908C129.954 92.7028 129.205 92.7028 128.609 92.7028C128.6 92.4508 128.584 91.7415 128.584 91.2575C128.584 90.8575 128.593 90.4361 128.6 90.0361C128.833 90.0281 129.101 90.0175 129.352 90.0175C129.749 90.0175 130.305 90.0455 130.788 90.1108C130.78 90.0081 130.752 89.9255 130.752 89.8215C130.752 89.6921 130.77 89.6068 130.788 89.5055C130.065 89.5895 129.332 89.5788 128.6 89.5708Z" fill="#214395"/>
<path d="M122.945 92.6742C122.945 89.7756 122.945 89.1422 123.029 86.7556C122.861 86.7836 122.685 86.8116 122.444 86.8116C122.212 86.8116 122.092 86.7836 121.943 86.7556C121.963 87.1569 122.017 88.5356 122.017 89.8036C122.017 91.0249 122.008 92.0129 121.935 93.2049C122.435 93.1769 122.668 93.1489 123.483 93.1489C124.492 93.1489 124.883 93.1862 125.484 93.2049C125.464 93.1289 125.448 93.0382 125.448 92.8889C125.448 92.7582 125.464 92.6649 125.484 92.5822C125.057 92.6556 124.28 92.6942 123.808 92.6942C123.576 92.6942 123.391 92.6942 122.945 92.6742Z" fill="#214395"/>
<path d="M115.165 89.5708C115.156 89.0761 115.156 88.9628 115.156 88.3588C115.156 87.8081 115.156 87.6508 115.175 87.2881C115.572 87.2668 115.74 87.2668 116.073 87.2668C116.88 87.2668 117.203 87.3241 117.547 87.3908C117.528 87.2961 117.509 87.2228 117.509 87.0908C117.509 86.9695 117.528 86.8668 117.547 86.7655C117.075 86.8121 116.611 86.8215 116.139 86.8215C115.491 86.8215 114.849 86.8215 114.201 86.7655C114.257 87.6788 114.276 88.9375 114.276 89.8695C114.276 91.9015 114.228 92.5068 114.172 93.2055C114.888 93.1775 115.611 93.1495 116.324 93.1495C116.751 93.1495 117.187 93.1495 117.612 93.2055C117.593 93.1121 117.575 93.0375 117.575 92.9068C117.575 92.7761 117.593 92.6921 117.612 92.5908C116.519 92.7028 115.768 92.7028 115.175 92.7028C115.165 92.4508 115.145 91.7415 115.145 91.2575C115.145 90.8575 115.156 90.4361 115.165 90.0361C115.396 90.0281 115.667 90.0175 115.916 90.0175C116.315 90.0175 116.871 90.0455 117.353 90.1108C117.343 90.0081 117.313 89.9255 117.313 89.8215C117.313 89.6921 117.333 89.6068 117.353 89.5055C116.631 89.5895 115.897 89.5788 115.165 89.5708Z" fill="#214395"/>
<path d="M111.199 92.3285C110.57 92.7752 109.679 92.7752 109.282 92.7752C108.835 92.7752 108.605 92.7579 108.289 92.7205C108.262 91.7992 108.262 91.6032 108.262 89.8965C108.262 89.0392 108.27 88.0885 108.307 87.2299C108.605 87.2032 108.679 87.1939 109.122 87.1939C109.865 87.1939 110.653 87.1939 111.301 87.6885C112.079 88.2739 112.238 89.2152 112.238 89.9139C112.238 90.6605 112.061 91.7152 111.199 92.3285ZM112.247 87.4565C111.385 86.7659 110.495 86.7659 108.835 86.7659C108.326 86.7659 107.826 86.7552 107.315 86.7379C107.371 87.7352 107.39 88.0885 107.39 89.4779C107.39 91.6205 107.345 92.2645 107.279 93.2045C107.807 93.1765 108.022 93.1672 108.27 93.1672C108.511 93.1672 109.653 93.2045 109.743 93.2045C111.598 93.2045 113.266 92.1619 113.266 89.8032C113.266 88.9912 113.053 88.0979 112.247 87.4565Z" fill="#214395"/>
<path d="M101.178 92.6742C101.178 89.7756 101.178 89.1422 101.261 86.7556C101.094 86.7836 100.918 86.8116 100.677 86.8116C100.446 86.8116 100.325 86.7836 100.177 86.7556C100.195 87.1569 100.251 88.5356 100.251 89.8036C100.251 91.0249 100.242 92.0129 100.166 93.2049C100.669 93.1769 100.899 93.1489 101.715 93.1489C102.726 93.1489 103.115 93.1862 103.718 93.2049C103.698 93.1289 103.679 93.0382 103.679 92.8889C103.679 92.7582 103.698 92.6649 103.718 92.5822C103.291 92.6556 102.513 92.6942 102.039 92.6942C101.807 92.6942 101.622 92.6942 101.178 92.6742Z" fill="#214395"/>
<path d="M97.523 89.8865C97.523 91.7145 97.495 92.1905 97.4297 93.2052C97.579 93.1772 97.7164 93.1492 97.9204 93.1492C98.1257 93.1492 98.319 93.1772 98.495 93.2052C98.467 92.5065 98.431 91.7612 98.431 90.0825C98.431 88.9745 98.4484 87.8652 98.5057 86.7559C98.347 86.7932 98.227 86.8119 97.967 86.8119C97.7164 86.8119 97.6057 86.7932 97.4577 86.7559C97.523 88.4612 97.523 88.5465 97.523 89.8865Z" fill="#214395"/>
<path d="M93.4158 89.5708C93.4065 89.0761 93.4065 88.9628 93.4065 88.3588C93.4065 87.8081 93.4065 87.6508 93.4252 87.2881C93.8238 87.2668 93.9905 87.2668 94.3238 87.2668C95.1305 87.2668 95.4545 87.3241 95.7972 87.3908C95.7785 87.2961 95.7612 87.2228 95.7612 87.0908C95.7612 86.9695 95.7785 86.8668 95.7972 86.7655C95.3252 86.8121 94.8598 86.8215 94.3892 86.8215C93.7398 86.8215 93.1012 86.8215 92.4518 86.7655C92.5078 87.6788 92.5265 88.9375 92.5265 89.8695C92.5265 91.9015 92.4798 92.5068 92.4238 93.2055C93.1372 93.1775 93.8598 93.1495 94.5745 93.1495C94.9998 93.1495 95.4358 93.1495 95.8625 93.2055C95.8438 93.1121 95.8238 93.0375 95.8238 92.9068C95.8238 92.7761 95.8438 92.6921 95.8625 92.5908C94.7692 92.7028 94.0185 92.7028 93.4252 92.7028C93.4158 92.4508 93.3972 91.7415 93.3972 91.2575C93.3972 90.8575 93.4065 90.4361 93.4158 90.0361C93.6465 90.0281 93.9158 90.0175 94.1665 90.0175C94.5652 90.0175 95.1212 90.0455 95.6025 90.1108C95.5932 90.0081 95.5665 89.9255 95.5665 89.8215C95.5665 89.6921 95.5852 89.6068 95.6025 89.5055C94.8798 89.5895 94.1478 89.5788 93.4158 89.5708Z" fill="#214395"/>
<path d="M90.7527 87.9387C90.7807 87.6227 90.9473 87.2493 91.022 87.1107C90.7993 86.9613 90.1687 86.68 89.446 86.68C88.3527 86.68 87.3887 87.288 87.3887 88.4893C87.3887 88.9173 87.5367 89.384 87.8527 89.6453C88.102 89.8693 88.222 89.9147 89.3073 90.3707C89.9273 90.624 90.4567 90.904 90.4567 91.6587C90.4567 92.2547 90.058 92.8973 89.0847 92.8973C88.3527 92.8973 87.806 92.488 87.5367 91.9293H87.4167C87.406 92.0493 87.3887 92.328 87.25 92.804C87.7313 93.1667 88.3247 93.3173 88.9367 93.3173C90.586 93.3173 91.2633 92.208 91.2633 91.2387C91.2633 90.8853 91.17 90.3907 90.7433 90.0467C90.4193 89.7747 90.2433 89.7107 89.2327 89.3187C88.7593 89.1333 88.1487 88.88 88.1487 88.1453C88.1487 87.8187 88.3247 87.0733 89.3353 87.0733C90.1873 87.0733 90.502 87.5853 90.6233 87.9387H90.7527Z" fill="#214395"/>
<path d="M81.1443 88.3859L82.951 90.2779C83.1083 90.4365 83.267 90.5952 83.423 90.7445C84.0723 91.3512 85.463 92.9072 85.7496 93.2605C85.815 93.2512 85.8523 93.2432 85.8976 93.2432C85.9536 93.2432 86.0003 93.2512 86.075 93.2605C86.0376 92.5992 86.0376 91.4819 86.0376 90.7539C86.0376 89.4125 86.0376 88.0592 86.195 86.7179C86.075 86.7459 85.9443 86.7752 85.7963 86.7752C85.647 86.7752 85.5363 86.7459 85.435 86.7179C85.5563 88.0699 85.5563 88.8899 85.5563 91.2672V91.6125C84.3776 90.4099 84.1736 90.1859 82.3203 88.2192C81.755 87.6232 81.5323 87.3712 81.283 87.0805L80.9776 86.7179C80.8936 86.7272 80.839 86.7379 80.783 86.7379C80.7363 86.7379 80.6896 86.7272 80.6336 86.7179V87.8352C80.6336 88.1725 80.6616 89.7939 80.6616 90.1672C80.6616 91.1365 80.5883 92.7392 80.543 93.2045C80.6523 93.1765 80.7363 93.1499 80.903 93.1499C81.0696 93.1499 81.1816 93.1765 81.2923 93.2045C81.2083 91.7605 81.171 91.2285 81.1443 88.9739V88.3859Z" fill="#214395"/>
<path d="M71.6916 91.91C70.9676 92.7753 70.005 92.87 69.5876 92.87C68.2716 92.87 67.077 91.91 67.077 89.97C67.077 88.1727 68.049 87.0913 69.513 87.0913C70.4583 87.0913 71.2743 87.5847 71.525 88.1167H71.617C71.6636 87.6887 71.701 87.5673 71.8396 87.1847C71.4223 86.998 70.6716 86.69 69.5503 86.69C67.113 86.69 66.001 88.1807 66.001 89.9807C66.001 91.902 67.2516 93.318 69.4023 93.318C70.2183 93.318 71.0143 93.1207 71.701 92.7127C71.7196 92.3673 71.7556 92.17 71.8023 91.9553L71.6916 91.91Z" fill="#214395"/>
<path d="M75.9538 92.9444C74.5272 92.9444 73.5072 91.8351 73.5072 90.0177C73.5072 87.9111 74.7498 87.0737 75.9818 87.0737C76.6125 87.0737 77.5485 87.3231 78.0498 88.1724C78.3725 88.7231 78.4565 89.4777 78.4565 89.9617C78.4565 91.8724 77.4192 92.9444 75.9538 92.9444ZM76.0285 86.6711C73.7578 86.6711 72.4512 88.0417 72.4512 90.0271C72.4512 92.0964 73.9152 93.3457 75.9365 93.3457C78.1418 93.3457 79.5138 91.8631 79.5138 89.9164C79.5138 87.8191 77.9658 86.6711 76.0285 86.6711Z" fill="#214395"/>
</g>
<path d="M66.4551 82.8775H160.222V28.1921H66.4551V82.8775Z" fill="#214395"/>
<mask id="mask1_87_436" style="mask-type:luminance" maskUnits="userSpaceOnUse" x="-565" y="-982" width="1617" height="1124">
<path d="M-564.479 141.345H1051.27V-981.175H-564.479V141.345Z" fill="white"/>
</mask>
<g mask="url(#mask1_87_436)">
<path d="M125.421 49.0039C126.703 47.3425 127.797 43.4852 125.894 40.7199C124.647 38.9132 122.606 37.9105 120.55 37.4399C114.976 36.1625 109.213 37.9399 104.238 40.5532C100.022 42.7692 95.7525 45.8025 92.9578 49.8452C92.0218 51.1985 91.2232 52.7332 90.7392 54.6639C90.2685 56.5452 90.0872 58.5052 90.3578 60.4359C91.7898 70.6585 102.775 74.3919 111.431 74.1052C117.367 73.9105 123.366 72.2492 128.581 69.2799C133.229 66.6319 137.777 62.9425 140.666 58.2479C140.794 58.0439 141.819 56.2532 142.214 56.5105C142.605 56.7639 141.514 58.5119 141.389 58.7172C138.353 63.6492 134.423 67.8785 129.749 71.1519C124.817 74.6065 119.115 76.8785 113.217 77.6985C108.165 78.4012 102.8 78.2092 98.0098 76.2465C93.9952 74.5999 90.4778 71.7505 88.7765 67.5319C87.2232 63.6785 87.5978 59.3652 89.0525 55.5425C92.9152 45.3945 101.839 37.4785 111.791 34.2852C116.346 32.8239 122.683 32.0039 126.778 35.2332C131.707 39.1239 129.583 45.8319 125.421 49.0039Z" fill="white"/>
</g>
<path d="M114.14 43.2278L115.443 42.2772H113.832L113.333 40.7345L112.835 42.2772H111.223L112.528 43.2278L112.031 44.7678L113.333 43.8158L114.636 44.7678L114.14 43.2278Z" fill="#FBC707"/>
<path d="M120.831 45.0278L122.135 44.0771H120.523L120.025 42.5344L119.523 44.0771H117.914L119.219 45.0278L118.721 46.5691L120.025 45.6171L121.326 46.5691L120.831 45.0278Z" fill="#FBC707"/>
<path d="M125.728 49.955L127.031 49.0043H125.422L124.92 47.4617L124.422 49.0043H122.81L124.114 49.955L123.619 51.4963L124.92 50.5443L126.224 51.4963L125.728 49.955Z" fill="#FBC707"/>
<path d="M127.519 56.6829L128.82 55.7309H127.211L126.71 54.1883L126.212 55.7309H124.602L125.904 56.6829L125.41 58.2256L126.71 57.2723L128.015 58.2256L127.519 56.6829Z" fill="#FBC707"/>
<path d="M125.723 63.4079L127.027 62.4585H125.417L124.917 60.9159L124.419 62.4585H122.807L124.111 63.4079L123.616 64.9479L124.917 63.9972L126.22 64.9479L125.723 63.4079Z" fill="#FBC707"/>
<path d="M120.827 68.3306L122.13 67.38H120.519L120.019 65.84L119.52 67.38H117.911L119.215 68.3306L118.718 69.8733L120.019 68.92L121.323 69.8733L120.827 68.3306Z" fill="#FBC707"/>
<path d="M114.14 70.1293L115.443 69.1787H113.832L113.333 67.636L112.835 69.1787H111.223L112.528 70.1293L112.031 71.672L113.333 70.7187L114.636 71.672L114.14 70.1293Z" fill="#FBC707"/>
<path d="M107.453 68.3306L108.757 67.38H107.146L106.646 65.84L106.148 67.38H104.537L105.841 68.3306L105.344 69.8733L106.646 68.92L107.95 69.8733L107.453 68.3306Z" fill="#FBC707"/>
<path d="M102.557 63.4079L103.861 62.4572H102.249L101.749 60.9145L101.252 62.4572H99.6396L100.945 63.4079L100.448 64.9479L101.749 63.9972L103.053 64.9479L102.557 63.4079Z" fill="#FBC707"/>
<path d="M100.766 56.6826L102.07 55.7319H100.458L99.9593 54.1879L99.4606 55.7319H97.8486L99.154 56.6826L98.6566 58.2252L99.9593 57.2719L101.262 58.2252L100.766 56.6826Z" fill="#FBC707"/>
<path d="M102.555 49.9558L103.859 49.0052H102.248L101.748 47.4625L101.25 49.0052H99.6377L100.943 49.9558L100.447 51.4958L101.748 50.5452L103.051 51.4958L102.555 49.9558Z" fill="#FBC707"/>
<path d="M107.448 45.0278L108.754 44.0771H107.143L106.643 42.5344L106.144 44.0771H104.532L105.838 45.0278L105.342 46.5691L106.643 45.6171L107.947 46.5691L107.448 45.0278Z" fill="#FBC707"/>
<path d="M124.114 49.955C122.252 52.1643 119.25 54.179 115.562 55.4576C113.18 56.2856 110.808 56.7056 108.642 56.7483L110.328 53.487C115.491 53.5656 122.13 51.635 124.114 49.955Z" fill="white"/>
</g>
<defs>
<clipPath id="clip0_87_436">
<rect width="94.4889" height="75.5913" fill="white" transform="translate(66 17.7544)"/>
</clipPath>
</defs>
</svg>
