<svg width="226" height="111" viewBox="0 0 226 111" fill="none" xmlns="http://www.w3.org/2000/svg">
<rect x="0.5" y="1.25439" width="225" height="109" fill="white" stroke="#DFDFDF"/>
<g clip-path="url(#clip0_87_437)">
<path d="M169 86.6523V52.0997H117.312V86.6523H169Z" fill="#254AA5"/>
<path d="M143.129 55.8552L143.622 57.388L145.226 57.3802L143.924 58.3213L144.426 59.8516L143.129 58.8987L141.837 59.8516L142.339 58.3213L141.034 57.3802L142.638 57.388L143.129 55.8552Z" fill="#FFF200"/>
<path d="M143.129 78.9051L143.622 80.4336L145.226 80.4265L143.924 81.3704L144.426 82.9004L143.129 81.9493L141.837 82.9004L142.339 81.3704L141.034 80.4265L142.638 80.4336L143.129 78.9051Z" fill="#FFF200"/>
<path d="M137.407 57.388L137.899 58.9201L139.503 58.9155L138.204 59.8524L138.706 61.3805L137.407 60.4298L136.114 61.3805L136.616 59.8524L135.316 58.9155L136.921 58.9201L137.407 57.388Z" fill="#FFF200"/>
<path d="M133.198 61.6189L133.686 63.1506L135.294 63.1403L133.987 64.0832L134.489 65.6111L133.198 64.6589L131.903 65.6111L132.406 64.0832L131.099 63.1403L132.708 63.1506L133.198 61.6189Z" fill="#FFF200"/>
<path d="M131.644 67.3687L132.13 68.8973L133.739 68.8901L132.436 69.8323L132.933 71.358L131.644 70.4058L130.349 71.358L130.855 69.8323L129.547 68.8901L131.154 68.8973L131.644 67.3687Z" fill="#FFF200"/>
<path d="M133.178 73.1146L133.671 74.6528L135.272 74.6402L133.971 75.5824L134.476 77.1099L133.178 76.1545L131.884 77.1099L132.389 75.5824L131.084 74.6431L132.688 74.6528L133.178 73.1146Z" fill="#FFF200"/>
<path d="M137.407 77.3437L137.899 78.8768L139.503 78.8686L138.204 79.8079L138.706 81.3372L137.407 80.3872L136.114 81.3372L136.616 79.8079L135.316 78.8686L136.921 78.8768L137.407 77.3437Z" fill="#FFF200"/>
<path d="M148.859 57.388L148.369 58.9201L146.76 58.9155L148.065 59.8524L147.562 61.3805L148.859 60.4298L150.152 61.3805L149.651 59.8524L150.952 58.9155L149.351 58.9201L148.859 57.388Z" fill="#FFF200"/>
<path d="M153.07 61.6189L152.579 63.1506L150.973 63.1403L152.277 64.0832L151.773 65.6111L153.07 64.6589L154.367 65.6111L153.861 64.0832L155.163 63.1403L153.558 63.1506L153.07 61.6189Z" fill="#FFF200"/>
<path d="M154.624 67.3687L154.135 68.8973L152.524 68.8901L153.831 69.8323L153.328 71.358L154.624 70.4058L155.92 71.358L155.418 69.8323L156.718 68.8901L155.113 68.8973L154.624 67.3687Z" fill="#FFF200"/>
<path d="M153.081 73.1146L152.597 74.6528L150.99 74.6402L152.295 75.5824L151.791 77.1099L153.081 76.1545L154.381 77.1099L153.879 75.5824L155.182 74.6431L153.576 74.6528L153.081 73.1146Z" fill="#FFF200"/>
<path d="M148.859 77.3437L148.369 78.8768L146.76 78.8686L148.065 79.8079L147.562 81.3372L148.859 80.3872L150.152 81.3372L149.651 79.8079L150.952 78.8686L149.351 78.8768L148.859 77.3437Z" fill="#FFF200"/>
<path d="M125.557 45.2072V42.3499C124.516 41.4595 120.373 39.6768 117.844 39.1168V41.1283C120.734 41.8399 124.337 43.9338 125.557 45.2072Z" fill="#787F84"/>
<path d="M127.658 49.4715H130.114C130.187 45.866 127.266 43.634 126.85 43.3107V46.746C127.786 48.2692 127.658 49.4715 127.658 49.4715Z" fill="#787F84"/>
<path d="M133.769 42.2147V45.316C135.002 46.6104 135.743 47.624 136.331 49.4863H138.931C138.236 46.639 136.584 44.3121 133.769 42.2147Z" fill="#787F84"/>
<path d="M132.186 43.9152V41.1208C129.801 39.5751 125.083 37.4563 120.373 36.4713V38.4752C124.9 39.5751 129.712 41.9256 132.186 43.9152Z" fill="#787F84"/>
<path d="M138.871 42.219V39.4542C136.007 37.6455 130.114 35.118 123.16 33.6465V35.6469C129.838 37.2635 134.907 39.5701 138.871 42.219Z" fill="#787F84"/>
<path d="M140.719 40.6308C140.718 40.629 140.714 43.6037 140.714 43.6037C142.539 45.0562 144.306 46.9688 145.483 49.4863H148.243C147.298 46.3535 143.765 42.5562 140.719 40.6308Z" fill="#787F84"/>
<path d="M146.325 40.4981V37.7322C140.851 34.487 132.646 31.6352 126.129 30.4845V32.4788C133.489 33.9585 142.256 37.6033 146.325 40.4981Z" fill="#787F84"/>
<path d="M155.179 49.4863H158.069C155.991 44.4973 150.782 40.4981 148.35 38.976V41.9103C152.034 44.645 153.396 46.5998 155.179 49.4863Z" fill="#787F84"/>
<path d="M153.663 38.7511V35.886C149.229 33.1672 140.257 29.0976 129.332 26.9888V29.0706C137.645 30.8007 148.243 34.9332 153.663 38.7511Z" fill="#787F84"/>
<path d="M164.562 49.4863H167.725C164.219 43.5077 160.207 40.0894 155.872 37.2636V40.2661C159.085 42.527 162.527 45.8977 164.562 49.4863Z" fill="#787F84"/>
<path d="M115.772 40.5676V38.6783C112.928 38.1423 107.927 37.8003 105.729 38.0873V39.5673C109.029 39.3952 113.888 40.0098 115.772 40.5676Z" fill="#787F84"/>
<path d="M103.516 39.7026V38.2889C98.2364 38.8421 94.6149 40.6601 92.5195 42.2108V43.4266C95.511 41.007 99.6554 40.0055 103.516 39.7026Z" fill="#787F84"/>
<path d="M91.2998 44.695L91.3001 43.3193C86.4431 48.7871 92.52 53.3409 93.1665 53.7946V51.9252C89.7693 49.3524 90.1682 46.2167 91.2998 44.695Z" fill="#787F84"/>
<path d="M95.0049 53.0837V55.0883C98.303 56.9173 101.622 58.0736 106.344 58.9212L106.31 56.2035C103.101 56.009 98.6913 55.0926 95.0049 53.0837Z" fill="#787F84"/>
<path d="M107.92 56.2892L107.906 59.1157C110.667 59.3459 113.274 59.4155 114.696 59.4137V56.2339C112.6 56.3748 108.715 56.4023 107.92 56.2892Z" fill="#787F84"/>
<path d="M118.302 37.9881V36.0609C114.902 35.371 108.312 34.8571 104.408 35.2222V36.7211C109.561 36.5309 114.656 37.1905 118.302 37.9881Z" fill="#787F84"/>
<path d="M104.563 64.3715V61.3455C99.5071 60.8965 91.7344 59.1282 86.9072 55.5782V57.5964C92.2006 61.596 100.572 63.8149 104.563 64.3715Z" fill="#787F84"/>
<path d="M85.0755 56.0815V54.0829C80.7922 50.0019 81.6285 45.8503 84.3941 43.1754V41.9256C79.0783 46.7624 81.0259 52.6164 85.0755 56.0815Z" fill="#787F84"/>
<path d="M106.339 61.5079V64.6411C109.416 65.0747 112.085 65.2138 114.695 65.2138V61.7559C111.88 61.771 107.589 61.6246 106.339 61.5079Z" fill="#787F84"/>
<path d="M85.8271 40.7479V41.9256C90.4334 38.4913 97.341 37.1072 102.196 36.8436V35.4042C96.1835 35.7978 89.2759 38.1069 85.8271 40.7479Z" fill="#787F84"/>
<path d="M78.332 57.9141V60.0793C84.9396 66.0511 95.8114 69.3023 102.379 70.4372V67.0628C96.3274 66.383 85.3927 64.0325 78.332 57.9141Z" fill="#787F84"/>
<path d="M121.089 35.1508V33.2486C116.818 32.4699 109.44 31.6205 102.529 32.2539V33.7607C108.337 33.3553 116.535 34.1123 121.089 35.1508Z" fill="#787F84"/>
<path d="M104.323 67.2823V70.7744C107.252 71.3615 112.07 71.6345 114.695 71.7309V67.839C113.132 67.8944 106.276 67.5001 104.323 67.2823Z" fill="#787F84"/>
<path d="M100.312 33.9011V32.4367C95.175 32.88 85.9898 34.7129 79.8965 38.8457V40.0312C85.8267 35.9849 95.0052 34.189 100.312 33.9011Z" fill="#787F84"/>
<path d="M78.2243 41.2375V40.0312C75.4366 42.1379 68.601 49.2407 76.5136 58.2307V56.05C74.7548 54.0801 70.5097 47.6989 78.2243 41.2375Z" fill="#787F84"/>
<path d="M124.057 32.0324V30.0795C118.886 29.0624 108.809 28.1823 100.887 28.9617V30.4703C107.89 29.9274 117.853 30.7191 124.057 32.0324Z" fill="#787F84"/>
<path d="M102.168 73.2637V76.9575C106.068 77.7176 110.925 78.1888 114.695 78.3172V74.1256C110.186 74.0489 106.296 73.8347 102.168 73.2637Z" fill="#787F84"/>
<path d="M100.038 76.6078V73.0336C89.1943 71.4972 77.2459 67.5393 69.8418 60.2649V62.5704C78.6136 71.3259 93.1645 75.3622 100.038 76.6078Z" fill="#787F84"/>
<path d="M73.9062 36.7532V37.916C81.1554 33.2925 91.0867 31.3051 98.6732 30.6309V29.1605C91.3795 29.794 80.6984 32.2829 73.9062 36.7532Z" fill="#787F84"/>
<path d="M68.0118 60.3373V57.9612C65.1735 54.0836 62.3886 46.4352 72.1968 39.1116V37.916C61.1816 45.8074 63.9269 55.4672 68.0118 60.3373Z" fill="#787F84"/>
<path d="M60.4062 61.8281V64.4037C68.7275 75.2195 85.9086 81.5863 96.5919 83.8419V79.8929C85.3677 77.9889 68.3132 72.4786 60.4062 61.8281Z" fill="#787F84"/>
<path d="M127.238 28.6234V26.5963C122.123 25.5256 109.691 24.1445 98.7422 25.2865V26.8443C107.897 26.037 119.45 27.0221 127.238 28.6234Z" fill="#787F84"/>
<path d="M96.5306 27.0335V25.5106C87.0294 26.4821 75.2331 29.775 68.3398 34.2882V35.4952C76.9997 30.1747 88.4922 27.7954 96.5306 27.0335Z" fill="#787F84"/>
<path d="M98.9121 80.2694V84.3183C101.352 84.941 110.612 86.2686 114.695 86.3008V81.6595C108.463 81.4614 102.098 80.7833 98.9121 80.2694Z" fill="#787F84"/>
<path d="M66.4822 36.7211V35.4952C63.6937 37.2972 50.4902 47.2303 58.6008 61.564V58.6731C53.5279 48.1069 61.2607 40.4388 66.4822 36.7211Z" fill="#787F84"/>
</g>
<defs>
<clipPath id="clip0_87_437">
<rect width="113" height="78" fill="white" transform="translate(56 16.7544)"/>
</clipPath>
</defs>
</svg>
