<svg width="56" height="55" viewBox="0 0 56 55" fill="none" xmlns="http://www.w3.org/2000/svg">
<g clip-path="url(#clip0_583_326)">
<path d="M9.34529 55C6.47345 55 3.63062 55 0.758789 55C0.758789 36.6667 0.758789 18.3333 0.758789 0C19.0921 0 37.3965 0 55.7588 0C55.7588 18.3333 55.7588 36.6667 55.7588 55C52.945 55 50.1312 55 47.3173 55C47.8975 54.7099 48.1296 54.2748 48.1006 53.6076C48.0716 52.8824 48.1006 52.1282 48.0716 51.403C48.0135 49.0823 47.0272 47.1967 45.2577 45.7463C45.1127 45.6303 44.9967 45.5142 44.8516 45.4272C44.9096 45.4272 44.9386 45.4272 44.9967 45.4272C45.1127 44.615 45.1997 43.8027 45.3448 43.0195C45.3738 42.7874 45.4608 42.5264 45.6348 42.3813C51.2625 36.6377 53.6992 29.7627 52.7999 21.7853C52.1617 16.1287 49.7831 11.2553 45.6929 7.31013C39.0209 0.870253 31.1016 -1.18935 22.109 0.899262C20.8616 1.18935 19.6723 1.7115 18.4829 2.14662C17.8738 2.37869 17.6417 2.98787 17.8448 3.53903C18.0478 4.09019 18.657 4.32226 19.2662 4.1192C19.4402 4.06118 19.6143 3.97416 19.8173 3.88713C21.7029 3.1039 23.6755 2.58175 25.677 2.37869C26.0832 3.07489 26.0832 3.07489 25.677 3.68407C25.2129 4.38027 25.2129 5.07648 25.561 5.80169C26.0251 6.75897 26.8084 7.36814 27.7366 7.77426C28.3168 8.03534 28.926 8.2674 29.5352 8.49947C29.8833 8.61551 30.0283 8.76055 29.8543 9.16667C29.7092 9.51477 29.6512 9.89188 29.6222 10.269C29.4771 11.7774 29.4771 11.7774 28.0267 12.0675C27.9977 12.0675 27.9687 12.0965 27.9107 12.0965C27.1275 12.2126 26.5183 12.6477 26.1992 13.3439C25.9381 13.9241 25.7641 14.5912 25.677 15.2294C25.503 16.8249 26.4603 17.8112 28.0557 17.6661C28.839 17.5791 29.4191 17.8402 29.9123 18.3914C30.6955 19.2906 31.6528 19.6967 32.8421 19.6097C33.0162 19.6097 33.2482 19.7547 33.3643 19.8998C33.9154 20.596 34.3796 21.3792 34.9307 22.0464C35.3368 22.5105 35.5399 23.0037 35.5689 23.5839C35.5689 23.8449 35.5689 24.135 35.5979 24.3961C35.714 25.7885 36.8163 26.7168 38.1217 26.4267C38.6148 26.3107 39.137 26.0786 39.5721 25.7595C40.4713 25.1213 40.9355 24.135 41.2546 23.0907C41.3706 22.7716 41.4866 22.4525 41.6317 22.1334C41.6897 22.1334 41.7477 22.1044 41.8057 22.1044C42.0958 22.5105 42.3859 22.8877 42.676 23.2938C43.1691 23.903 43.5752 24.5992 44.1264 25.1213C45.1707 26.1076 46.302 26.1656 47.4914 25.3534C47.7815 25.1503 47.9845 25.2083 48.3036 25.2663C48.8258 25.3824 49.3769 25.3534 49.9281 25.2954C50.2182 25.2663 50.4793 25.0923 50.8274 24.9763C50.6823 30.6329 48.7968 35.5643 45.0257 39.8286C44.8806 39.5675 44.7936 39.3645 44.7066 39.1904C43.7493 37.5079 41.8637 36.5506 39.9782 36.7827C38.0346 37.0438 36.3812 38.4362 36.004 40.3217C35.6849 41.9172 35.6269 43.5417 36.1781 45.1371C36.2071 45.2532 36.2071 45.4562 36.1201 45.5433C35.888 45.7753 35.5979 45.9784 35.4239 46.1234C34.6987 45.3402 34.0315 44.586 33.3353 43.8318C33.2772 43.9188 33.1902 43.9768 33.1322 44.0638C33.2772 43.5417 33.5093 43.0485 33.5673 42.5264C33.6544 41.366 33.7124 40.2057 33.6544 39.0454C33.5383 36.4636 31.4207 34.317 28.868 34.0849C26.2572 33.8528 23.7625 35.4773 23.1823 37.972C22.7472 39.8866 22.6892 41.8592 23.4144 43.7737C23.4724 43.8898 23.4434 44.0928 23.3564 44.1799C22.6602 44.847 21.9349 45.4852 21.2097 46.1524C21.0067 45.9784 20.7456 45.7753 20.4845 45.5723C20.3975 45.5142 20.3395 45.3402 20.3685 45.2532C20.9197 44.0348 20.7746 42.7584 20.7746 41.5111C20.7746 39.2774 19.2662 37.3919 17.1776 36.8987C15.0019 36.3766 12.8263 37.3919 11.782 39.4225C11.724 39.5385 11.666 39.6545 11.5789 39.8576C8.41702 36.2605 6.53147 32.1704 5.9513 27.529C6.6475 27.2969 7.28569 27.1229 7.89487 26.8618C8.30098 26.6878 8.59107 26.7748 8.85214 27.0649C9.25826 27.471 9.63537 27.9061 10.0415 28.2832C10.5636 28.7764 11.1728 29.1535 11.898 29.2405C13.3775 29.4436 15.234 27.5 14.6828 25.9916C14.4798 25.4694 14.2767 24.9182 14.0447 24.3961C13.8706 23.961 13.6675 23.5549 13.4935 23.1197C13.3775 22.8586 13.4065 22.5976 13.7256 22.4525C14.0156 22.3075 14.2767 22.2205 14.5088 22.5396C14.6248 22.7136 14.7989 22.8587 14.9439 23.0037C16.3363 24.6862 18.1348 24.7152 20.1074 23.8159C21.2387 23.3228 21.7029 22.2205 21.4708 21.0021C21.2097 19.6097 20.3975 18.5654 19.2372 17.8112C18.0768 17.028 16.8005 16.5058 15.4951 16.1287C14.7118 15.8966 14.1027 15.5195 14.0156 14.6203C14.0156 14.5042 13.9286 14.3882 13.8706 14.2722C13.4065 13.0538 12.6232 12.2996 11.2308 12.2996C10.7377 12.2996 10.2445 12.1255 9.60636 12.0095C10.3896 11.0522 11.0568 10.269 11.695 9.48576C12.1591 8.9346 12.1591 8.29641 11.666 7.86129C11.2018 7.45517 10.5636 7.51319 10.0995 8.03534C4.47187 14.4172 2.4993 21.7563 4.2398 30.0818C5.22609 34.8101 7.57577 38.8713 10.9988 42.2653C11.1148 42.3813 11.2598 42.5844 11.2889 42.7584C11.4339 43.6287 11.5209 44.4989 11.637 45.4562C10.1865 46.5005 9.08421 47.98 8.73611 49.8945C8.53305 51.0839 8.62008 52.3022 8.53305 53.5206C8.50404 54.2458 8.73611 54.7099 9.34529 55ZM15.6981 5.54061C15.6981 4.93143 15.234 4.49631 14.6538 4.49631C14.0737 4.49631 13.5805 4.96044 13.5805 5.54061C13.5805 6.12078 14.0737 6.64293 14.6538 6.64293C15.234 6.61392 15.6981 6.12078 15.6981 5.54061Z" fill="white"/>
<path d="M9.34541 55C8.76524 54.7099 8.53317 54.2748 8.56218 53.6076C8.64921 52.3892 8.56218 51.1709 8.76524 49.9815C9.08433 48.067 10.2157 46.5875 11.6661 45.5432C11.55 44.586 11.434 43.7157 11.318 42.8454C11.289 42.6714 11.1729 42.4973 11.0279 42.3523C7.6049 38.9293 5.25522 34.8971 4.26893 30.1688C2.55744 21.8723 4.53001 14.5042 10.1286 8.12234C10.5928 7.60019 11.231 7.54217 11.6951 7.94829C12.1882 8.35441 12.1882 8.9926 11.7241 9.57277C11.0569 10.356 10.4187 11.1682 9.63549 12.0965C10.2737 12.2125 10.7668 12.3866 11.26 12.3866C12.6524 12.3866 13.4356 13.1408 13.8997 14.3592C13.9578 14.4752 14.0158 14.5912 14.0448 14.7073C14.1608 15.6065 14.741 15.9836 15.5242 16.2157C16.8586 16.5928 18.106 17.115 19.2663 17.8982C20.4266 18.6814 21.2389 19.6967 21.4999 21.0891C21.732 22.3075 21.2679 23.3808 20.1365 23.9029C18.164 24.7732 16.3655 24.7442 14.973 23.0907C14.828 22.9166 14.654 22.8006 14.5379 22.6266C14.3059 22.3075 14.0448 22.3655 13.7547 22.5395C13.4356 22.7136 13.4356 22.9457 13.5226 23.2067C13.6967 23.6419 13.8997 24.048 14.0738 24.4831C14.3059 25.0053 14.5089 25.5274 14.712 26.0786C15.2631 27.616 13.4066 29.5306 11.9272 29.3275C11.1729 29.2405 10.5928 28.8634 10.0706 28.3702C9.6645 27.9931 9.25838 27.558 8.88127 27.1519C8.59119 26.8618 8.33011 26.8038 7.924 26.9488C7.31482 27.1809 6.67663 27.3839 5.98043 27.616C6.5606 32.2574 8.44615 36.3186 11.6081 39.9156C11.6951 39.7415 11.7531 39.5965 11.8111 39.4805C12.8554 37.4499 15.0311 36.4346 17.2067 36.9567C19.2953 37.4499 20.8037 39.3644 20.8037 41.5691C20.8037 42.8164 20.9778 44.1218 20.3976 45.3112C20.3686 45.3982 20.4266 45.5432 20.5137 45.6303C20.7747 45.8623 21.0358 46.0654 21.2389 46.2104C21.9641 45.5432 22.6893 44.905 23.3855 44.2379C23.4725 44.1508 23.4725 43.9478 23.4435 43.8317C22.7183 41.9172 22.7763 39.9446 23.2114 38.03C23.7916 35.5063 26.2863 33.8818 28.8971 34.1429C31.4498 34.375 33.5675 36.5506 33.6835 39.1034C33.7415 40.2637 33.6835 41.424 33.5965 42.5844C33.5675 43.1065 33.3064 43.5997 33.1613 44.1218C33.2194 44.0348 33.3064 43.9768 33.3644 43.8898C34.0606 44.644 34.7278 45.3982 35.453 46.1814C35.6271 46.0364 35.9171 45.8333 36.1492 45.6012C36.2362 45.5142 36.2362 45.3112 36.2072 45.1951C35.6561 43.5997 35.7141 41.9752 36.0332 40.3797C36.4103 38.4652 38.0638 37.1018 40.0073 36.8407C41.8929 36.5796 43.8074 37.5659 44.7357 39.2484C44.8517 39.4225 44.9388 39.6255 45.0548 39.8866C48.8259 35.6223 50.6824 30.6909 50.8565 25.0343C50.5374 25.1503 50.2473 25.3243 49.9572 25.3534C49.4351 25.3824 48.8549 25.4404 48.3327 25.3243C48.0137 25.2373 47.8106 25.2083 47.5205 25.4114C46.3602 26.2236 45.1998 26.1946 44.1555 25.1793C43.6044 24.6281 43.1692 23.961 42.7051 23.3518C42.415 22.9747 42.1249 22.5685 41.8349 22.1624C41.7768 22.1624 41.7188 22.1914 41.6608 22.1914C41.5448 22.5105 41.3997 22.8296 41.2837 23.1487C40.9646 24.193 40.5005 25.1503 39.6012 25.8175C39.1661 26.1076 38.6729 26.3687 38.1508 26.4847C36.8454 26.7748 35.7431 25.8465 35.6271 24.4541C35.598 24.193 35.598 23.9319 35.598 23.6419C35.598 23.0327 35.366 22.5685 34.9599 22.1044C34.3797 21.4372 33.9156 20.654 33.3934 19.9578C33.2774 19.8127 33.0453 19.6387 32.8713 19.6677C31.6819 19.7547 30.6956 19.3486 29.9414 18.4493C29.4483 17.8982 28.8971 17.6371 28.0849 17.7241C26.4894 17.8982 25.5031 16.9119 25.7062 15.2874C25.7642 14.6492 25.9672 13.982 26.2283 13.4019C26.5474 12.7057 27.1566 12.2706 27.9398 12.1545C27.9688 12.1545 27.9978 12.1545 28.0559 12.1255C29.5063 11.8354 29.5063 11.8354 29.6803 10.356C29.7093 9.97888 29.7673 9.60177 29.9124 9.25367C30.0864 8.84755 29.9124 8.70251 29.5933 8.58648C28.9841 8.35441 28.3749 8.12234 27.7948 7.86127C26.8665 7.42614 26.0833 6.81696 25.6191 5.88869C25.271 5.16348 25.271 4.43827 25.7352 3.77108C26.1413 3.1619 26.1413 3.1619 25.7352 2.4657C23.7046 2.69777 21.761 3.21992 19.8755 3.97414C19.7014 4.06116 19.5274 4.14819 19.3243 4.2062C18.6861 4.40926 18.106 4.1772 17.9029 3.62604C17.6708 3.07487 17.9029 2.4657 18.5411 2.23363C19.7304 1.76949 20.9488 1.27635 22.1671 0.986267C31.1598 -1.10234 39.0791 0.957259 45.722 7.33912C49.8122 11.2843 52.1909 16.1577 52.8291 21.8143C53.7283 29.8207 51.2916 36.6666 45.664 42.4103C45.5189 42.5554 45.4319 42.8164 45.3739 43.0485C45.2288 43.8607 45.1418 44.644 45.0258 45.4562C44.9678 45.4562 44.9388 45.4562 44.8807 45.4562C45.0258 45.5722 45.1418 45.6883 45.2869 45.7753C47.0564 47.2547 48.0427 49.1113 48.1007 51.4319C48.1297 52.1572 48.0717 52.9114 48.1297 53.6366C48.1587 54.2748 47.9266 54.7389 47.3465 55.029C34.6408 55 21.9931 55 9.34541 55ZM28.0268 2.23363C28.2879 3.13289 28.1719 3.91612 27.6787 4.64133C27.5917 4.75736 27.6497 5.10547 27.7368 5.16348C28.2009 5.51158 28.665 5.80167 29.1582 6.06274C29.7093 6.32382 30.2895 6.49787 30.8407 6.75895C31.943 7.31011 32.3491 8.26739 32.059 9.42772C31.914 9.97888 31.7979 10.5881 31.7689 11.1682C31.6819 12.5026 31.0437 13.3729 29.7673 13.808C29.4483 13.924 29.1292 14.0111 28.7811 14.0981C27.9978 14.2721 27.7658 14.6492 27.8818 15.5485C29.2162 15.2874 30.3765 15.7226 31.2468 16.7088C31.7689 17.289 32.3491 17.5211 33.1323 17.4341C34.0316 17.347 34.6988 17.7531 35.1629 18.5364C35.598 19.2616 36.0622 19.9868 36.6133 20.625C37.1645 21.2632 37.5706 21.9594 37.6576 22.8006C37.7157 23.2938 37.7447 23.7579 37.8027 24.3091C38.5859 23.961 38.876 23.3518 39.1371 22.6556C39.3691 22.0464 39.5722 21.4372 39.9203 20.9151C40.6455 19.8127 41.8929 19.5807 42.9662 20.3639C43.4593 20.712 43.8364 21.2051 44.2136 21.6693C44.5326 22.0754 44.7647 22.5395 45.0838 22.9457C45.751 23.8449 45.867 23.8739 46.7663 23.2357C46.8823 23.1777 46.9693 23.0907 47.0854 23.0327C47.7236 22.6846 48.3327 22.6556 48.9419 23.0907C49.087 23.1777 49.377 23.2067 49.5511 23.1487C50.7695 22.6266 50.7695 22.6266 50.5374 21.3212C50.5084 21.1471 50.5084 20.9731 50.4504 20.799C48.5648 11.9224 43.3433 6.06274 34.7278 3.19091C32.6102 2.4657 30.3475 2.17561 28.0268 2.23363ZM5.77737 25.3534C6.2125 25.2083 6.5606 25.1213 6.9087 24.9762C8.47516 24.3671 9.37442 24.5701 10.5638 25.7885C10.8538 26.0786 11.1149 26.3977 11.434 26.6587C11.6661 26.8618 11.8691 27.2969 12.3043 27.0068C12.7394 26.7168 12.5944 26.3396 12.4203 25.9625C12.1882 25.4694 11.8982 25.0053 11.7531 24.5121C11.5501 23.9029 11.318 23.2647 11.347 22.6556C11.347 21.4372 12.1592 20.799 13.2035 20.3639C14.2188 19.9288 15.0891 20.0738 15.8433 20.857C16.0464 21.0891 16.2784 21.2922 16.4525 21.5242C17.0907 22.4235 17.9319 22.3655 18.8602 22.0754C19.3243 21.9304 19.4694 21.6693 19.3243 21.1761C19.0922 20.5089 18.6861 19.9578 18.0769 19.6387C17.2357 19.1746 16.3364 18.7974 15.4662 18.4203C14.828 18.1303 14.1608 17.9272 13.5226 17.6371C12.8554 17.318 12.3913 16.7959 12.1882 16.0416C12.1012 15.6355 11.9272 15.2584 11.7531 14.8813C11.6951 14.7363 11.5501 14.5622 11.405 14.5332C10.4477 14.3301 9.49045 14.1851 8.47516 13.982C6.64762 17.4631 5.69035 21.2342 5.77737 25.3534ZM21.9061 52.7953C26.1993 52.7953 30.4636 52.7953 34.6988 52.7953C35.0469 49.1693 33.6545 46.9066 31.6239 45.7753C29.7673 47.0807 27.8238 47.3127 25.7642 46.2684C25.4451 46.0944 25.068 45.8043 24.7779 45.8623C24.4298 45.9203 24.1397 46.2975 23.8496 46.5585C23.6756 46.7036 23.5305 46.8776 23.3855 47.0517C21.9641 48.7632 21.732 50.7067 21.9061 52.7953ZM25.068 40.5248H25.097C25.097 40.9019 25.097 41.279 25.097 41.6561C25.155 43.3966 26.5764 44.818 28.3169 44.818C30.0284 44.818 31.4788 43.4256 31.5369 41.7141C31.5659 40.9019 31.5659 40.1187 31.5369 39.3064C31.4788 37.74 30.2025 36.4056 28.665 36.2605C27.0115 36.1155 25.5321 37.1308 25.213 38.7262C25.068 39.3064 25.097 39.9156 25.068 40.5248ZM45.925 52.8244C45.925 52.3022 45.9541 51.8381 45.925 51.3739C45.867 49.7495 45.1708 48.4441 43.9235 47.3998C43.6334 47.1677 43.4303 47.1387 43.0822 47.3418C41.5158 48.299 39.8623 48.357 38.2668 47.4288C37.7447 47.1387 37.4546 47.1677 37.0775 47.5738C36.9324 47.7189 36.7584 47.8349 36.6714 47.9799C36.5843 48.183 36.4973 48.4151 36.5263 48.6471C36.6423 49.6044 36.8164 50.5327 36.9034 51.49C36.9614 51.9251 36.9034 52.3602 36.9034 52.8244C39.9203 52.8244 42.8792 52.8244 45.925 52.8244ZM19.6144 52.8244C19.7304 51.548 19.7304 50.3006 20.0205 49.1403C20.2236 48.328 20.0205 47.8639 19.4113 47.4578C19.3533 47.4288 19.2953 47.3708 19.2373 47.3127C19.0342 47.1097 18.8602 47.1387 18.6281 47.2837C16.9166 48.328 15.1761 48.3571 13.4646 47.3127C13.1745 47.1387 13.0005 47.1677 12.7684 47.3708C10.9989 48.7632 10.4767 50.6487 10.7088 52.8244C13.7257 52.8244 16.7136 52.8244 19.6144 52.8244ZM37.9187 42.4103C37.9477 42.4103 37.9477 42.4103 37.9767 42.4103C37.9767 42.7584 37.9767 43.0775 37.9767 43.4256C38.0348 44.789 39.1081 45.8623 40.4715 45.9493C41.8058 46.0074 42.9952 45.0211 43.1112 43.6577C43.1983 42.8164 43.1692 41.9752 43.1112 41.1339C42.9952 39.9156 41.9509 38.9583 40.7615 38.9003C39.4852 38.8133 38.3538 39.5965 38.0638 40.8149C37.9477 41.337 37.9767 41.8882 37.9187 42.4103ZM18.7151 42.4393C18.6861 42.4393 18.6861 42.4393 18.6571 42.4393C18.6571 42.0622 18.6861 41.6851 18.6571 41.308C18.5701 40.0026 17.4968 38.9583 16.2204 38.9003C14.828 38.8423 13.6387 39.7705 13.5226 41.1049C13.4356 41.9752 13.4356 42.8454 13.5226 43.7157C13.6387 44.9631 14.712 45.8623 15.9593 45.9203C17.1487 45.9784 18.28 45.1951 18.5411 44.0058C18.6861 43.5126 18.6571 42.9905 18.7151 42.4393Z" fill="#444444"/>
<path d="M15.6979 5.5406C15.6979 6.12077 15.2337 6.61391 14.6536 6.61391C14.0734 6.61391 13.5512 6.12077 13.5803 5.51159C13.5803 4.93142 14.0734 4.46729 14.6536 4.46729C15.2337 4.49629 15.6979 4.93142 15.6979 5.5406Z" fill="#4777A7"/>
<path d="M28.0272 2.23364C30.3769 2.17562 32.6105 2.43669 34.7862 3.16191C43.3727 6.03374 48.6232 11.9225 50.5087 20.77C50.5378 20.9441 50.5668 21.1181 50.5958 21.2922C50.8278 22.5976 50.8278 22.6266 49.6095 23.1197C49.4354 23.1777 49.1453 23.1777 49.0003 23.0617C48.3621 22.6556 47.7529 22.6556 47.1438 23.0037C47.0277 23.0617 46.9407 23.1487 46.8247 23.2067C45.9254 23.8449 45.8094 23.8449 45.1422 22.9167C44.8231 22.5105 44.591 22.0174 44.2719 21.6403C43.8948 21.1761 43.4887 20.683 43.0246 20.3349C41.9803 19.5807 40.7039 19.8127 39.9787 20.8861C39.6306 21.4082 39.4275 22.0464 39.1955 22.6266C38.9344 23.2938 38.6153 23.9319 37.8611 24.28C37.8031 23.7289 37.774 23.2648 37.716 22.7716C37.629 21.9304 37.1939 21.2342 36.6717 20.596C36.1206 19.9578 35.6564 19.2326 35.2213 18.5074C34.7572 17.7241 34.09 17.289 33.1907 17.405C32.4075 17.4921 31.8563 17.26 31.3052 16.6798C30.4059 15.6936 29.2746 15.2584 27.9402 15.5195C27.7951 14.6202 28.0272 14.2431 28.8394 14.0691C29.1585 13.9821 29.5066 13.895 29.8257 13.779C31.0731 13.3439 31.7113 12.4736 31.8273 11.1392C31.8563 10.5591 31.9724 9.97889 32.1174 9.39872C32.4075 8.23838 32.0304 7.2811 30.899 6.72994C30.3479 6.46887 29.7677 6.29482 29.2166 6.03374C28.7234 5.77266 28.2303 5.48258 27.7951 5.13448C27.6791 5.04745 27.6501 4.72836 27.7371 4.61233C28.1723 3.91612 28.2593 3.1329 28.0272 2.23364Z" fill="white"/>
<path d="M5.77701 25.3534C5.66098 21.2342 6.61825 17.4631 8.5038 14.0111C9.5191 14.1852 10.4764 14.3592 11.4337 14.5623C11.5787 14.5913 11.7237 14.7653 11.7818 14.9104C11.9558 15.2875 12.1008 15.6646 12.2169 16.0707C12.4199 16.8249 12.8841 17.3471 13.5513 17.6662C14.1895 17.9563 14.8567 18.1593 15.4948 18.4494C16.3651 18.8265 17.2643 19.2326 18.1056 19.6678C18.7148 19.9868 19.1209 20.538 19.353 21.2052C19.527 21.6983 19.353 21.9594 18.8888 22.1045C17.9896 22.3945 17.1193 22.4236 16.4811 21.5533C16.3071 21.3212 16.075 21.1182 15.8719 20.8861C15.1177 20.1029 14.2475 19.9578 13.2322 20.393C12.1879 20.8281 11.3756 21.4953 11.3756 22.6846C11.3756 23.2938 11.6077 23.932 11.7818 24.5412C11.9558 25.0343 12.2169 25.5275 12.4489 25.9916C12.623 26.3687 12.768 26.7168 12.3329 27.0359C11.8978 27.326 11.6947 26.8909 11.4627 26.6878C11.1436 26.4267 10.8825 26.1076 10.5924 25.8175C9.40306 24.5992 8.5038 24.3961 6.93735 25.0053C6.56024 25.0923 6.21214 25.2084 5.77701 25.3534Z" fill="white"/>
<path d="M21.9064 52.7954C21.7323 50.7067 21.9644 48.7342 23.3858 47.0807C23.5309 46.9066 23.6759 46.7326 23.85 46.5876C24.14 46.3265 24.4301 45.9494 24.7782 45.8913C25.0683 45.8333 25.4454 46.1234 25.7645 46.2975C27.8241 47.3128 29.7677 47.0807 31.6242 45.8043C33.6838 46.9357 35.0472 49.1983 34.6991 52.8244C30.4639 52.7954 26.1996 52.7954 21.9064 52.7954Z" fill="white"/>
<path d="M25.0674 40.5248C25.0964 39.9156 25.0964 39.3065 25.2124 38.7263C25.5315 37.1308 27.0109 36.1155 28.6644 36.2606C30.2019 36.4056 31.4782 37.74 31.5363 39.3065C31.5653 40.1187 31.5653 40.9019 31.5363 41.7142C31.4782 43.4257 30.0278 44.8181 28.3163 44.8181C26.5758 44.8181 25.1544 43.4257 25.0964 41.6561C25.0964 41.279 25.0964 40.9019 25.0964 40.5248H25.0674Z" fill="white"/>
<path d="M45.9249 52.8243C42.9081 52.8243 39.9492 52.8243 36.9033 52.8243C36.9033 52.3602 36.9323 51.9251 36.9033 51.4899C36.7873 50.5327 36.6132 49.6044 36.5262 48.6471C36.4972 48.444 36.5842 48.183 36.6712 47.9799C36.7583 47.8059 36.9613 47.7188 37.0774 47.5738C37.4255 47.1967 37.7446 47.1387 38.2667 47.4288C39.8622 48.357 41.5156 48.299 43.0821 47.3417C43.4302 47.1387 43.6333 47.1677 43.9233 47.3997C45.1707 48.444 45.8669 49.7494 45.9249 51.3739C45.9249 51.838 45.9249 52.3022 45.9249 52.8243Z" fill="white"/>
<path d="M19.6147 52.8244C16.6848 52.8244 13.726 52.8244 10.7381 52.8244C10.506 50.6487 10.9992 48.7632 12.7977 47.3708C13.0298 47.1677 13.2038 47.1387 13.4939 47.3128C15.2054 48.3571 16.9459 48.3571 18.6574 47.2838C18.8895 47.1387 19.0635 47.1097 19.2666 47.3128C19.3246 47.3708 19.3826 47.3998 19.4406 47.4578C20.0498 47.8929 20.2529 48.3281 20.0498 49.1403C19.7307 50.3006 19.7597 51.548 19.6147 52.8244Z" fill="white"/>
<path d="M37.9189 42.4104C37.977 41.8882 37.948 41.337 38.064 40.8149C38.3541 39.5965 39.4854 38.8423 40.7618 38.9003C41.9511 38.9584 42.9954 39.9156 43.1115 41.134C43.1985 41.9752 43.1985 42.8165 43.1115 43.6577C42.9954 45.0211 41.7771 46.0074 40.4717 45.9494C39.0793 45.8914 38.006 44.8181 37.977 43.4257C37.977 43.0776 37.977 42.7585 37.977 42.4104C37.948 42.4104 37.948 42.4104 37.9189 42.4104Z" fill="white"/>
<path d="M18.7148 42.4394C18.6568 42.9615 18.6858 43.5127 18.5408 44.0348C18.2507 45.1952 17.1193 46.0074 15.959 45.9494C14.6826 45.8914 13.6383 44.9631 13.5223 43.7447C13.4353 42.8745 13.4353 42.0042 13.5223 41.134C13.6673 39.7996 14.8567 38.8713 16.2201 38.9293C17.4965 38.9873 18.5698 40.0317 18.6568 41.337C18.6858 41.7141 18.6568 42.0913 18.6568 42.4684C18.6858 42.4394 18.6858 42.4394 18.7148 42.4394Z" fill="white"/>
</g>
<defs>
<clipPath id="clip0_583_326">
<rect width="55" height="55" fill="white" transform="translate(0.758789)"/>
</clipPath>
</defs>
</svg>
